<svg id="svg" version="1.1" xmlns="http://www.w3.org/2000/svg" xmlns:xlink="http://www.w3.org/1999/xlink" width="400" height="61.016949152542374" viewBox="0, 0, 400,61.016949152542374"><g id="svgg"><path id="path0" d="M2.625 35.860 C 2.373 35.952,2.167 36.097,2.167 36.181 C 2.167 36.265,2.052 36.333,1.911 36.333 C 1.683 36.333,1.035 36.924,0.333 37.773 C -0.007 38.185,-0.048 53.845,0.292 53.958 C 0.406 53.997,0.502 54.115,0.506 54.222 C 0.513 54.490,1.096 55.167,1.318 55.167 C 1.418 55.167,1.500 55.238,1.500 55.326 C 1.500 55.413,1.847 55.638,2.271 55.826 C 4.201 56.679,18.833 56.238,18.833 55.326 C 18.833 55.238,18.915 55.167,19.015 55.167 C 19.211 55.167,19.819 54.504,19.828 54.280 C 19.831 54.204,19.948 54.028,20.088 53.888 C 20.466 53.510,20.382 38.230,20.000 37.783 C 19.191 36.836,18.642 36.333,18.420 36.333 C 18.280 36.333,18.167 36.266,18.167 36.183 C 18.167 35.675,3.941 35.380,2.625 35.860 " stroke="none" fill="#fc5c04" fill-rule="evenodd"></path><path id="path1" d="M133.167 29.500 L 133.167 55.833 138.000 55.833 L 142.833 55.833 142.833 50.778 L 142.833 45.724 145.003 43.528 C 146.196 42.321,147.198 41.333,147.229 41.333 C 147.260 41.333,147.728 41.943,148.268 42.688 C 148.808 43.434,149.381 44.163,149.542 44.309 C 149.702 44.455,149.833 44.664,149.833 44.773 C 149.833 44.883,149.890 44.997,149.959 45.028 C 150.029 45.058,150.402 45.496,150.789 46.000 C 151.177 46.504,151.607 47.035,151.747 47.181 C 151.886 47.326,152.000 47.501,152.000 47.569 C 152.000 47.638,152.281 48.043,152.625 48.470 C 152.969 48.897,153.306 49.322,153.374 49.415 C 153.442 49.508,153.816 49.996,154.206 50.500 C 155.103 51.659,156.456 53.447,157.454 54.792 L 158.227 55.833 164.197 55.833 C 170.254 55.833,170.469 55.810,169.863 55.215 C 169.696 55.051,169.197 54.429,168.753 53.833 C 168.310 53.237,167.809 52.600,167.640 52.417 C 167.317 52.066,163.214 46.954,162.500 46.014 C 162.271 45.712,161.933 45.291,161.750 45.077 C 161.567 44.864,161.219 44.441,160.978 44.136 C 160.737 43.832,159.312 42.057,157.811 40.192 C 153.484 34.814,153.614 35.001,153.959 34.620 C 154.119 34.442,157.625 30.887,161.750 26.719 C 165.875 22.551,169.275 19.071,169.306 18.987 C 169.412 18.692,157.548 18.792,157.298 19.088 C 157.180 19.229,156.814 19.623,156.485 19.963 C 156.156 20.304,155.111 21.446,154.162 22.500 C 152.110 24.782,151.496 25.454,150.500 26.510 C 150.087 26.947,149.300 27.805,148.750 28.417 C 148.200 29.028,147.630 29.653,147.484 29.806 C 147.337 29.959,146.402 30.983,145.406 32.083 C 144.411 33.183,143.424 34.270,143.215 34.498 L 142.833 34.913 142.833 19.040 L 142.833 3.167 138.000 3.167 L 133.167 3.167 133.167 29.500 M25.500 31.167 L 25.500 55.833 30.750 55.833 L 36.000 55.833 36.004 41.125 L 36.009 26.417 36.689 27.167 C 37.314 27.855,40.182 30.948,41.167 31.995 C 41.396 32.239,42.371 33.292,43.333 34.336 C 44.296 35.380,45.681 36.875,46.411 37.658 C 47.142 38.442,47.886 39.252,48.066 39.458 C 48.362 39.797,48.544 39.833,49.949 39.833 L 51.505 39.833 52.294 38.985 C 52.728 38.518,53.404 37.787,53.795 37.360 C 54.186 36.933,54.754 36.321,55.056 36.000 C 55.359 35.679,56.379 34.554,57.325 33.500 C 58.270 32.446,59.203 31.422,59.397 31.226 C 59.591 31.029,60.200 30.375,60.750 29.773 C 61.300 29.171,62.219 28.175,62.792 27.559 L 63.833 26.440 63.833 41.137 L 63.833 55.833 69.000 55.833 L 74.167 55.833 74.167 31.167 L 74.167 6.500 72.292 6.508 L 70.417 6.517 68.593 8.467 C 66.751 10.436,62.233 15.188,60.083 17.418 C 58.873 18.674,57.639 19.967,54.674 23.084 C 53.716 24.092,52.264 25.609,51.446 26.456 L 49.960 27.996 47.938 25.885 C 46.826 24.724,45.392 23.235,44.750 22.576 C 43.199 20.983,41.181 18.881,36.676 14.166 C 34.618 12.012,32.275 9.575,31.468 8.750 C 30.662 7.925,29.885 7.081,29.742 6.875 C 29.496 6.522,29.367 6.500,27.491 6.500 L 25.500 6.500 25.500 31.167 M339.282 8.125 C 339.243 8.194,339.118 8.550,339.006 8.917 C 338.534 10.451,337.653 12.489,336.808 14.000 C 336.325 14.863,335.612 15.919,335.475 15.972 C 335.397 16.003,335.333 16.107,335.333 16.203 C 335.333 16.300,335.165 16.551,334.958 16.762 C 334.752 16.972,334.058 17.680,333.417 18.335 C 332.220 19.555,330.814 20.569,329.125 21.429 L 328.167 21.917 328.167 24.375 L 328.167 26.833 331.417 26.833 L 334.667 26.833 334.671 35.708 C 334.676 44.377,334.771 46.808,335.176 48.557 C 336.257 53.225,339.559 56.216,344.236 56.762 C 346.718 57.051,349.491 56.796,350.988 56.140 C 352.444 55.502,352.924 55.215,353.958 54.362 L 354.833 53.641 354.833 49.820 C 354.833 46.123,354.776 45.716,354.333 46.250 C 354.219 46.387,354.027 46.500,353.906 46.500 C 353.785 46.500,353.438 46.643,353.135 46.817 C 351.723 47.628,348.252 47.919,346.834 47.344 C 344.490 46.394,344.347 45.695,344.339 35.208 L 344.333 26.833 349.417 26.833 L 354.500 26.833 354.500 22.833 L 354.500 18.833 349.417 18.833 L 344.333 18.833 344.333 13.417 L 344.333 8.000 341.843 8.000 C 340.474 8.000,339.321 8.056,339.282 8.125 M99.000 18.080 C 95.509 18.540,92.302 20.164,89.700 22.789 C 88.648 23.850,86.500 26.921,86.500 27.364 C 86.500 27.494,86.423 27.677,86.330 27.770 C 86.077 28.023,85.509 29.581,85.153 31.000 C 83.548 37.387,84.351 44.520,87.200 49.167 C 88.024 50.511,90.814 53.667,91.178 53.667 C 91.235 53.667,91.482 53.839,91.728 54.050 C 95.611 57.387,104.892 57.805,108.169 54.792 C 108.343 54.631,108.548 54.500,108.623 54.500 C 108.790 54.500,111.135 52.212,111.542 51.652 C 111.703 51.431,112.022 50.992,112.251 50.676 L 112.667 50.102 112.667 52.968 L 112.667 55.833 117.417 55.833 L 122.167 55.833 122.167 37.333 L 122.167 18.833 117.422 18.833 L 112.677 18.833 112.630 20.753 L 112.583 22.673 111.833 21.961 C 109.719 19.953,106.718 18.525,103.667 18.074 C 101.808 17.799,101.129 17.800,99.000 18.080 M186.167 18.080 C 182.149 18.609,178.849 20.489,175.772 24.000 C 174.388 25.579,172.824 28.881,172.139 31.667 C 171.604 33.842,171.558 40.879,172.063 43.167 C 173.734 50.736,179.123 55.986,186.000 56.745 C 188.462 57.016,190.976 56.818,192.430 56.238 C 192.987 56.015,193.512 55.833,193.596 55.833 C 193.996 55.833,196.374 54.097,197.417 53.044 C 198.704 51.743,198.739 51.702,199.383 50.753 L 199.833 50.089 199.833 52.961 L 199.833 55.833 204.583 55.833 L 209.333 55.833 209.333 37.333 L 209.333 18.833 204.583 18.833 L 199.833 18.833 199.828 20.792 L 199.823 22.750 199.419 22.292 C 199.198 22.040,198.973 21.833,198.920 21.833 C 198.867 21.833,198.576 21.597,198.273 21.309 C 195.648 18.811,190.679 17.486,186.167 18.080 M237.750 18.080 C 236.286 18.302,234.774 18.847,234.239 19.346 C 234.050 19.522,233.845 19.667,233.783 19.667 C 233.597 19.667,233.004 20.175,231.463 21.655 L 230.000 23.060 230.000 20.947 L 230.000 18.833 225.166 18.833 L 220.332 18.833 220.374 37.292 L 220.417 55.750 225.208 55.794 L 230.000 55.838 230.000 43.845 L 230.000 31.851 230.811 30.876 C 231.583 29.949,232.586 29.050,233.807 28.192 C 236.676 26.177,241.529 27.329,243.191 30.420 C 243.990 31.905,244.011 32.223,244.115 44.375 L 244.212 55.833 248.940 55.833 L 253.667 55.833 253.667 43.975 L 253.667 32.118 254.291 31.350 C 257.225 27.746,259.716 26.609,262.883 27.429 C 265.040 27.988,266.456 29.185,267.275 31.142 L 267.739 32.250 267.800 44.042 L 267.860 55.833 272.597 55.833 L 277.333 55.833 277.330 43.625 C 277.329 36.910,277.260 30.779,277.177 30.000 C 276.963 27.986,275.762 24.564,275.067 23.987 C 274.939 23.880,274.833 23.699,274.833 23.584 C 274.833 23.301,272.023 20.333,271.755 20.333 C 271.637 20.333,271.457 20.232,271.354 20.109 C 269.364 17.710,260.794 17.225,257.820 19.343 C 257.570 19.521,257.315 19.667,257.253 19.667 C 256.876 19.667,253.584 22.691,252.399 24.125 C 251.960 24.657,251.667 24.814,251.667 24.517 C 251.667 24.178,250.464 22.542,249.438 21.485 C 246.735 18.698,242.260 17.395,237.750 18.080 M375.833 18.069 C 374.151 18.273,372.939 18.614,371.581 19.266 C 371.121 19.486,370.687 19.667,370.617 19.667 C 369.997 19.667,365.167 23.737,365.167 24.260 C 365.167 24.336,364.988 24.590,364.769 24.824 C 363.287 26.410,361.669 30.797,361.319 34.175 C 360.716 40.003,361.977 46.863,364.108 49.346 C 364.232 49.491,364.333 49.666,364.333 49.735 C 364.333 50.332,367.878 53.842,369.248 54.602 C 370.816 55.472,372.233 56.071,373.750 56.504 C 375.313 56.950,379.112 56.983,381.061 56.567 C 383.740 55.995,388.411 52.423,389.211 50.333 C 389.264 50.196,389.313 51.377,389.320 52.958 L 389.333 55.833 394.083 55.833 L 398.833 55.833 398.833 37.333 L 398.833 18.833 394.083 18.833 L 389.333 18.833 389.333 20.679 L 389.333 22.525 388.244 21.621 C 387.644 21.123,386.950 20.611,386.702 20.483 C 386.453 20.355,386.212 20.207,386.167 20.154 C 386.121 20.102,385.596 19.816,385.000 19.519 C 382.048 18.050,379.420 17.634,375.833 18.069 M287.001 30.375 C 287.003 44.064,287.117 45.413,288.511 48.202 C 291.198 53.581,296.107 56.423,303.056 56.620 C 307.676 56.751,310.462 56.044,313.958 53.853 C 314.440 53.551,314.833 53.236,314.833 53.152 C 314.833 53.069,314.925 53.000,315.038 53.000 C 315.301 53.000,317.256 50.943,317.785 50.108 C 320.423 45.949,320.499 45.397,320.500 30.458 L 320.500 18.833 315.667 18.833 L 310.833 18.833 310.830 29.125 C 310.826 39.833,310.709 42.123,310.109 43.283 C 309.957 43.577,309.833 43.918,309.833 44.042 C 309.833 44.860,307.317 46.857,305.767 47.270 C 302.026 48.266,298.652 46.611,297.220 43.077 L 296.750 41.917 296.703 30.375 L 296.656 18.833 291.828 18.833 L 287.000 18.833 287.001 30.375 M105.688 27.441 C 107.901 27.936,109.840 29.057,111.958 31.065 L 112.667 31.736 112.661 34.826 C 112.651 39.856,112.073 41.849,109.917 44.293 C 106.073 48.648,99.151 48.317,96.080 43.631 C 94.630 41.418,94.415 40.619,94.428 37.502 L 94.440 34.750 95.037 33.417 C 96.022 31.216,96.183 30.967,97.407 29.748 C 99.668 27.495,102.456 26.719,105.688 27.441 M192.884 27.439 C 195.109 27.944,197.004 29.044,199.125 31.062 L 199.833 31.736 199.834 34.743 C 199.834 38.908,199.151 42.114,198.073 43.008 C 197.941 43.118,197.833 43.294,197.833 43.400 C 197.833 43.636,195.862 45.610,195.313 45.925 C 188.569 49.785,181.500 45.516,181.500 37.583 C 181.500 30.744,186.766 26.051,192.884 27.439 M382.384 27.430 C 383.044 27.574,383.901 27.837,384.290 28.013 C 384.678 28.189,385.032 28.333,385.077 28.333 C 385.308 28.333,387.704 30.100,388.481 30.843 L 389.379 31.703 389.294 35.726 C 389.213 39.621,389.196 39.781,388.772 40.729 C 388.531 41.268,388.333 41.772,388.333 41.851 C 388.333 42.813,385.532 45.632,383.667 46.548 L 382.250 47.243 379.917 47.241 C 377.857 47.239,377.492 47.196,376.801 46.869 C 376.370 46.666,375.980 46.500,375.934 46.500 C 375.514 46.500,374.017 45.156,372.837 43.720 C 370.716 41.138,370.437 35.911,372.232 32.370 C 372.876 31.099,374.584 29.000,374.975 29.000 C 375.071 29.000,375.210 28.897,375.283 28.772 C 375.961 27.611,379.853 26.875,382.384 27.430 " stroke="none" fill="#040404" fill-rule="evenodd"></path><path id="path2" d="" stroke="none" fill="#1003004" fill-rule="evenodd"></path><path id="path3" d="" stroke="none" fill="#443004" fill-rule="evenodd"></path><path id="path4" d="" stroke="none" fill="#043404" fill-rule="evenodd"></path></g></svg>