<svg id="svg" version="1.1" xmlns="http://www.w3.org/2000/svg" xmlns:xlink="http://www.w3.org/1999/xlink" width="400" height="400" viewBox="0, 0, 400,400"><g id="svgg"><path id="path0" d="M11.167 277.109 C 6.618 278.918,3.520 281.647,1.452 285.667 L 0.167 288.167 0.167 313.333 L 0.167 338.500 1.452 341.000 C 3.162 344.324,5.644 346.822,8.907 348.500 L 11.500 349.833 36.667 349.833 L 61.833 349.833 64.333 348.548 C 67.658 346.838,70.155 344.356,71.833 341.093 L 73.167 338.500 73.167 313.333 L 73.167 288.167 71.833 285.574 C 70.155 282.310,67.658 279.828,64.333 278.119 L 61.833 276.833 37.000 276.772 C 18.421 276.726,11.915 276.811,11.167 277.109 " stroke="none" fill="#fc5c04" fill-rule="evenodd"></path><path id="path1" d="M86.333 200.163 L 86.333 349.667 127.666 349.667 L 168.998 349.667 169.083 277.564 L 169.167 205.461 199.000 239.227 L 228.833 272.994 241.225 272.997 L 253.616 273.000 283.558 239.126 L 313.500 205.252 313.584 277.460 L 313.668 349.667 354.834 349.667 L 396.000 349.667 396.000 200.167 L 396.000 50.667 381.388 50.667 L 366.776 50.667 303.988 114.347 L 241.201 178.027 239.477 176.263 C 238.529 175.294,210.322 146.675,176.794 112.667 L 115.833 50.833 101.083 50.747 L 86.333 50.660 86.333 200.163 " stroke="none" fill="#040404" fill-rule="evenodd"></path><path id="path2" d="" stroke="none" fill="#1003004" fill-rule="evenodd"></path><path id="path3" d="" stroke="none" fill="#443004" fill-rule="evenodd"></path><path id="path4" d="" stroke="none" fill="#043404" fill-rule="evenodd"></path></g></svg>